<svg width="512" height="512" xmlns="http://www.w3.org/2000/svg" xmlns:svg="http://www.w3.org/2000/svg">
 <g class="layer">
  <title>Layer 1</title>
  <path d="m504,256c0,136.97 -111.03,248 -248,248s-248,-111.03 -248,-248s111.03,-248 248,-248s248,111.03 248,248zm-48,0l0,-0.28l-26.07,22.74l-62.68,-58.5l16.46,-84.36l34.3,3.08c-24.89,-34.22 -60,-60.09 -100.71,-73.15l13.65,31.94l-74.95,41.53l-74.95,-41.53l13.65,-31.93c-40.63,13.02 -75.78,38.87 -100.71,73.14l34.56,-3.08l16.2,84.36l-62.68,58.5l-26.07,-22.74l0,0.28c0,43.01 13.5,83.95 38.47,117.99l7.71,-33.9l85.13,10.45l36.31,77.83l-29.91,17.78c40.21,13.12 84.29,13.15 124.58,0l-29.91,-17.78l36.31,-77.83l85.13,-10.45l7.71,33.9c24.97,-34.04 38.47,-74.98 38.47,-117.99zm-248.1,69.57l-29.9,-91.31l78,-56.53l78,56.53l-29.63,91.31l-96.47,0z" fill="#7f00ff" id="svg_1"/>
 </g>
</svg>