<?xml version="1.0" standalone="no"?>
<!DOCTYPE svg PUBLIC "-//W3C//DTD SVG 20010904//EN"
 "http://www.w3.org/TR/2001/REC-SVG-20010904/DTD/svg10.dtd">
<svg version="1.0" xmlns="http://www.w3.org/2000/svg"
 width="350.000000pt" height="278.000000pt" viewBox="0 0 350.000000 278.000000"
 preserveAspectRatio="xMidYMid meet">

<g transform="translate(0.000000,278.000000) scale(0.100000,-0.100000)"
fill="#000000" stroke="none">
<path d="M0 1390 l0 -1390 1750 0 1750 0 0 1390 0 1390 -1750 0 -1750 0 0
-1390z m1820 765 c0 -2 -5 -16 -12 -30 -9 -21 -18 -25 -53 -25 -35 0 -44 4
-53 25 -7 14 -12 28 -12 30 0 3 29 5 65 5 36 0 65 -2 65 -5z m-246 -103 c13
-26 13 -32 -4 -60 -15 -25 -27 -32 -50 -32 -16 0 -30 3 -30 8 0 10 59 112 65
112 2 0 11 -13 19 -28z m236 -3 c11 -27 11 -35 -3 -58 -12 -20 -24 -26 -52
-26 -28 0 -40 6 -52 26 -14 23 -14 31 -3 58 11 28 17 31 55 31 38 0 44 -3 55
-31z m195 -53 l15 -36 -32 0 c-26 0 -37 6 -50 31 -16 28 -17 33 -2 60 l15 30
20 -25 c11 -14 26 -41 34 -60z m-318 -7 c14 -23 14 -31 3 -58 -11 -27 -17 -31
-51 -31 -28 0 -42 6 -53 22 -20 28 -20 43 0 74 23 35 78 31 101 -7z m239 -3
c15 -31 15 -35 -1 -60 -25 -38 -84 -37 -107 2 -16 27 -16 30 2 60 16 26 26 32
55 32 30 0 38 -5 51 -34z m-239 -138 c15 -24 15 -28 0 -52 -24 -36 -78 -36
-101 -1 -15 23 -15 28 -1 56 14 26 21 30 51 27 26 -2 40 -10 51 -30z m235 4
c14 -24 15 -30 2 -55 -12 -22 -21 -27 -53 -27 -33 0 -40 4 -51 30 -10 25 -10
34 4 55 24 36 76 35 98 -3z m388 -218 c0 -24 -2 -44 -4 -44 -3 0 -31 16 -62
35 l-58 34 -42 -39 c-190 -175 -586 -182 -773 -14 l-50 45 -49 -31 c-27 -16
-52 -30 -56 -30 -4 0 -6 21 -4 47 l3 47 114 68 c62 38 114 68 115 66 8 -13 26
-61 26 -69 0 -5 -16 -19 -36 -31 l-35 -21 23 -24 c46 -50 169 -98 276 -108 80
-8 188 6 267 36 55 20 135 74 142 95 2 6 -12 19 -32 30 -19 10 -35 20 -35 23
0 2 5 21 11 41 l12 38 123 -75 124 -74 0 -45z m-740 147 c9 -22 9 -34 0 -50
-6 -12 -13 -21 -15 -21 -5 0 -55 84 -55 93 0 4 13 7 29 7 22 0 31 -6 41 -29z
m235 5 c15 -22 15 -27 0 -55 -13 -26 -22 -31 -50 -31 -28 0 -37 5 -50 30 -14
27 -14 32 1 55 23 35 77 35 99 1z m194 -3 c-5 -16 -18 -39 -29 -53 l-18 -24
-13 27 c-17 38 4 77 42 77 26 0 27 -2 18 -27z m-196 -127 c16 -23 15 -24 -17
-30 -18 -3 -46 -3 -64 0 -30 6 -31 7 -15 30 21 33 75 33 96 0z"/>
</g>
</svg>
